<svg width="1280" height="720" viewBox="0 0 1280 720" xmlns="http://www.w3.org/2000/svg">
  <defs>
    <linearGradient id="bg" x1="0" y1="0" x2="0" y2="1">
      <stop offset="0%" stop-color="#0a2a5a"/>
      <stop offset="100%" stop-color="#081a38"/>
    </linearGradient>
    <linearGradient id="hero" x1="0" y1="0" x2="1" y2="1">
      <stop offset="0%" stop-color="#1a4688" stop-opacity="0.75"/>
      <stop offset="100%" stop-color="#0a1938" stop-opacity="0.82"/>
    </linearGradient>
    <linearGradient id="trackFill" x1="0" y1="0" x2="1" y2="0">
      <stop offset="0%" stop-color="#7ad0ff"/>
      <stop offset="100%" stop-color="#d2f6ff"/>
    </linearGradient>
    <filter id="shadow" x="-20%" y="-20%" width="140%" height="140%">
      <feDropShadow dx="0" dy="8" stdDeviation="10" flood-color="#000" flood-opacity="0.35"/>
    </filter>
  </defs>

  <rect width="1280" height="720" fill="url(#bg)"/>

  <g opacity="0.18">
    <ellipse cx="240" cy="180" rx="180" ry="58" fill="#ffffff"/>
    <ellipse cx="500" cy="250" rx="220" ry="70" fill="#ffffff"/>
    <ellipse cx="860" cy="200" rx="170" ry="55" fill="#ffffff"/>
  </g>

  <g transform="translate(36,26)">
    <rect x="0" y="0" width="1208" height="58" rx="12" fill="rgba(255,255,255,0.08)"/>
    <circle cx="30" cy="29" r="18" fill="#ffffff" fill-opacity="0.15"/>
    <text x="58" y="25" font-family="Segoe UI, Arial" font-size="20" fill="#ffffff" font-weight="700">Jami Masjid Noorani</text>
    <text x="58" y="45" font-family="Segoe UI, Arial" font-size="12" fill="#cfe0ff">Halifax, UK</text>
    <rect x="1046" y="16" width="140" height="26" rx="13" fill="#ffffff" fill-opacity="0.16"/>
    <text x="1060" y="33" font-family="Segoe UI, Arial" font-size="12" fill="#ffffff">Updated 19:42</text>
  </g>

  <g transform="translate(36,98)" filter="url(#shadow)">
    <rect x="0" y="0" width="1208" height="316" rx="20" fill="url(#hero)"/>

    <text x="32" y="72" font-family="Segoe UI, Arial" font-size="58" fill="#ffffff" font-weight="800">13:21</text>
    <text x="196" y="72" font-family="Segoe UI, Arial" font-size="24" fill="#d7e8ff" font-weight="700">PM</text>
    <text x="32" y="102" font-family="Segoe UI, Arial" font-size="18" fill="#d7e8ff">Monday  ·  13 Apr 2026</text>
    <text x="32" y="128" font-family="Segoe UI, Arial" font-size="16" fill="#ffe8a3">24 Shawwal 1447 AH</text>

    <text x="32" y="188" font-family="Georgia, Times New Roman" font-size="44" fill="#ffffff" font-weight="700">Dhuhr</text>
    <text x="32" y="216" font-family="Segoe UI, Arial" font-size="24" fill="#f0f6ff">Jamaat in 40m</text>

    <rect x="24" y="244" width="1160" height="6" rx="3" fill="#ffffff" fill-opacity="0.26"/>
    <rect x="24" y="244" width="420" height="6" rx="3" fill="url(#trackFill)"/>

    <circle cx="24" cy="247" r="7" fill="#ffb347" stroke="#ffffff" stroke-width="2"/>
    <circle cx="198" cy="247" r="5" fill="#ecf6ff" stroke="#0d2950" stroke-width="1.5"/>
    <rect x="1038" y="237" width="3" height="20" rx="1.5" fill="#cfe8ff"/>
    <circle cx="1184" cy="247" r="7" fill="#e6f8ff" stroke="#ffffff" stroke-width="2"/>

    <rect x="24" y="268" width="1160" height="34" rx="10" fill="#06142d" fill-opacity="0.42"/>
    <line x1="410" y1="272" x2="410" y2="298" stroke="#ffffff" stroke-opacity="0.15"/>
    <line x1="800" y1="272" x2="800" y2="298" stroke="#ffffff" stroke-opacity="0.15"/>

    <text x="218" y="282" text-anchor="middle" font-family="Segoe UI, Arial" font-size="13" fill="#cfe0ff" font-weight="700">Start</text>
    <text x="218" y="300" text-anchor="middle" font-family="Segoe UI, Arial" font-size="22" fill="#ffffff" font-weight="800">13:10</text>

    <text x="605" y="282" text-anchor="middle" font-family="Segoe UI, Arial" font-size="13" fill="#cfe0ff" font-weight="700">Jamaat</text>
    <text x="605" y="300" text-anchor="middle" font-family="Segoe UI, Arial" font-size="22" fill="#ffffff" font-weight="800">14:00</text>

    <text x="993" y="282" text-anchor="middle" font-family="Segoe UI, Arial" font-size="13" fill="#cfe0ff" font-weight="700">Asr</text>
    <text x="993" y="300" text-anchor="middle" font-family="Segoe UI, Arial" font-size="22" fill="#ffffff" font-weight="800">17:56</text>
  </g>

  <text x="36" y="450" font-family="Segoe UI, Arial" font-size="20" fill="#d7e8ff" font-weight="700">Option 2: Marker labels near bar, times moved to fixed three-column strip</text>
</svg>